<svg xmlns="http://www.w3.org/2000/svg" viewBox="0 0 30 20">
  <rect width="30" height="20" fill="#de2910"/>
  <g fill="#ffde00">
    <!-- 큰 별 -->
    <path d="M6 2 L6.838 3.847 L8.853 4.073 L7.355 5.44 L7.764 7.427 L6 6.425 L4.236 7.427 L4.645 5.44 L3.147 4.073 L5.162 3.847 Z"/>
    <!-- 작은 별 4개 -->
    <path transform="translate(11.5 2.2)"  d="M0 -1 L0.279 -0.384 L0.951 -0.309 L0.451 0.147 L0.588 0.809 L0 0.475 L-0.588 0.809 L-0.451 0.147 L-0.951 -0.309 L-0.279 -0.384 Z"/>
    <path transform="translate(13.8 4.3)"  d="M0 -1 L0.279 -0.384 L0.951 -0.309 L0.451 0.147 L0.588 0.809 L0 0.475 L-0.588 0.809 L-0.451 0.147 L-0.951 -0.309 L-0.279 -0.384 Z"/>
    <path transform="translate(13.8 7.2)"  d="M0 -1 L0.279 -0.384 L0.951 -0.309 L0.451 0.147 L0.588 0.809 L0 0.475 L-0.588 0.809 L-0.451 0.147 L-0.951 -0.309 L-0.279 -0.384 Z"/>
    <path transform="translate(11.5 9.3)"  d="M0 -1 L0.279 -0.384 L0.951 -0.309 L0.451 0.147 L0.588 0.809 L0 0.475 L-0.588 0.809 L-0.451 0.147 L-0.951 -0.309 L-0.279 -0.384 Z"/>
  </g>
</svg>
